<svg data-v-423bf9ae="" xmlns="http://www.w3.org/2000/svg" viewBox="0 0 402 112" class="iconLeft"><!----><!----><!----><g data-v-423bf9ae="" id="467c80ab-8611-4184-a71f-024c36d36959" fill="#7031F6" transform="matrix(4.285714577655423,0,0,4.285714577655423,127.04417939599571,13.551631552832426)"><path d="M6.03 10.22C6.03 10.82 5.83 11.34 5.41 11.79C4.99 12.24 4.48 12.46 3.86 12.46C3.26 12.46 2.75 12.24 2.32 11.79C1.90 11.35 1.69 10.83 1.69 10.22C1.69 9.61 1.90 9.09 2.32 8.65C2.75 8.20 3.26 7.98 3.86 7.98C4.48 7.98 4.99 8.20 5.41 8.65C5.83 9.10 6.03 9.62 6.03 10.22ZM1.67 14.14L0.67 14.14C0.77 14.79 1.07 15.37 1.57 15.86C2.19 16.49 2.94 16.80 3.82 16.80C4.70 16.80 5.45 16.49 6.08 15.86C6.70 15.24 7.01 14.49 7.01 13.61L7.01 7.14L6.03 7.14L6.03 8.17C5.99 8.11 5.93 8.05 5.87 7.98C5.26 7.33 4.55 7.00 3.72 7.00C2.87 7.00 2.14 7.33 1.56 7.98C1.00 8.61 0.71 9.36 0.71 10.22C0.71 11.08 1.00 11.83 1.56 12.46C2.14 13.11 2.87 13.44 3.72 13.44C4.57 13.44 5.29 13.11 5.87 12.46C5.93 12.39 5.99 12.33 6.03 12.27L6.03 13.61C6.03 14.21 5.82 14.74 5.38 15.17C4.95 15.60 4.43 15.82 3.82 15.82C3.22 15.82 2.69 15.60 2.26 15.17C1.96 14.87 1.76 14.52 1.67 14.14ZM14.01 10.22C14.01 10.82 13.81 11.34 13.39 11.79C12.97 12.24 12.46 12.46 11.84 12.46C11.23 12.46 10.71 12.24 10.30 11.79C9.88 11.34 9.67 10.82 9.67 10.22C9.67 9.62 9.88 9.10 10.30 8.65C10.71 8.20 11.23 7.98 11.84 7.98C12.46 7.98 12.97 8.20 13.39 8.65C13.81 9.10 14.01 9.62 14.01 10.22ZM14.99 13.30L14.99 7.14L14.01 7.14L14.01 8.19C13.96 8.12 13.90 8.05 13.84 7.98C13.26 7.33 12.54 7.00 11.69 7.00C10.84 7.00 10.12 7.33 9.54 7.98C8.98 8.61 8.69 9.36 8.69 10.22C8.69 11.08 8.98 11.83 9.54 12.46C10.12 13.11 10.84 13.44 11.69 13.44C12.54 13.44 13.26 13.11 13.84 12.46C13.90 12.39 13.96 12.32 14.01 12.25L14.01 13.30ZM24.91 13.27L25.89 13.27L25.89 9.42C25.89 8.73 25.72 8.16 25.38 7.71C25.20 7.49 24.99 7.31 24.72 7.18C24.46 7.04 24.12 6.97 23.69 6.97C23.26 6.97 22.88 7.09 22.56 7.32C22.27 7.53 22.03 7.81 21.84 8.14C21.77 7.99 21.68 7.85 21.58 7.71C21.41 7.49 21.19 7.31 20.93 7.18C20.67 7.04 20.32 6.97 19.89 6.97C19.46 6.97 19.09 7.09 18.77 7.32C18.49 7.52 18.26 7.78 18.07 8.09L18.07 7.11L17.09 7.11L17.09 13.27L18.07 13.27L18.07 10.12C18.13 9.62 18.25 9.20 18.45 8.85C18.60 8.59 18.80 8.37 19.05 8.20C19.31 8.04 19.58 7.95 19.87 7.95C20.16 7.95 20.37 8.00 20.51 8.08C20.91 8.34 21.11 8.78 21.11 9.42L21.11 13.27L22.09 13.27L22.09 9.42C22.09 9.34 22.09 9.26 22.09 9.19C22.13 9.07 22.19 8.95 22.25 8.85C22.40 8.59 22.60 8.37 22.85 8.20C23.10 8.04 23.37 7.95 23.66 7.95C23.95 7.95 24.16 8.00 24.30 8.08C24.71 8.34 24.91 8.78 24.91 9.42ZM32.68 10.22C32.68 10.82 32.47 11.34 32.05 11.79C31.64 12.24 31.12 12.46 30.51 12.46C29.89 12.46 29.38 12.24 28.96 11.79C28.54 11.34 28.34 10.82 28.34 10.22C28.34 9.62 28.54 9.10 28.96 8.65C29.38 8.20 29.89 7.98 30.51 7.98C31.12 7.98 31.64 8.20 32.05 8.65C32.47 9.10 32.68 9.62 32.68 10.22ZM33.66 13.30L33.66 7.14L32.68 7.14L32.68 8.19C32.62 8.12 32.56 8.05 32.50 7.98C31.92 7.33 31.20 7.00 30.35 7.00C29.50 7.00 28.78 7.33 28.20 7.98C27.64 8.61 27.36 9.36 27.36 10.22C27.36 11.08 27.64 11.83 28.20 12.46C28.78 13.11 29.50 13.44 30.35 13.44C31.20 13.44 31.92 13.11 32.50 12.46C32.56 12.39 32.62 12.32 32.68 12.25L32.68 13.30ZM40.01 13.30L40.99 13.30L40.99 9.45C40.99 8.74 40.81 8.16 40.43 7.72C40.25 7.50 40.02 7.33 39.75 7.20C39.48 7.08 39.12 7.01 38.68 7.01C38.24 7.01 37.86 7.13 37.52 7.36C37.20 7.57 36.94 7.85 36.74 8.20L36.74 7.14L35.76 7.14L35.76 13.30L36.74 13.30L36.74 10.72C36.74 9.94 36.88 9.32 37.18 8.86C37.34 8.60 37.55 8.39 37.81 8.23C38.08 8.07 38.42 7.99 38.84 7.99C39.26 7.99 39.56 8.14 39.74 8.42C39.92 8.71 40.01 9.05 40.01 9.45ZM47.64 13.30L47.64 2.80L46.66 2.80L46.66 13.30ZM48.97 8.05L50.51 8.05L50.51 13.30L51.49 13.30L51.49 8.05L53.02 8.05L53.02 7.14L51.49 7.14L51.49 4.75L50.51 4.75L50.51 7.14L48.97 7.14ZM59.25 10.22C59.25 10.82 59.04 11.34 58.63 11.79C58.21 12.24 57.69 12.46 57.08 12.46C56.46 12.46 55.95 12.24 55.53 11.79C55.12 11.34 54.91 10.82 54.91 10.22C54.91 9.62 55.12 9.10 55.53 8.65C55.95 8.20 56.46 7.98 57.08 7.98C57.69 7.98 58.21 8.20 58.63 8.65C59.04 9.10 59.25 9.62 59.25 10.22ZM60.23 13.30L60.23 2.80L59.25 2.80L59.25 8.19C59.19 8.12 59.13 8.05 59.07 7.98C58.49 7.33 57.77 7.00 56.92 7.00C56.07 7.00 55.36 7.33 54.77 7.98C54.21 8.61 53.93 9.36 53.93 10.22C53.93 11.08 54.21 11.83 54.77 12.46C55.36 13.11 56.07 13.44 56.92 13.44C57.77 13.44 58.49 13.11 59.07 12.46C59.13 12.39 59.19 12.32 59.25 12.25L59.25 13.30ZM63.14 13.44C63.35 13.44 63.55 13.36 63.71 13.21C63.88 13.06 63.97 12.87 63.97 12.65C63.97 12.43 63.88 12.24 63.72 12.09C63.56 11.94 63.36 11.86 63.14 11.86C62.92 11.86 62.72 11.94 62.57 12.10C62.41 12.25 62.33 12.44 62.33 12.66C62.33 12.87 62.41 13.06 62.57 13.21C62.74 13.36 62.93 13.44 63.14 13.44Z"></path></g><!----><g data-v-423bf9ae="" id="2f163697-c454-4b04-a276-98857a4dca0b" transform="matrix(1.1110718621148004,0,0,1.1110718621148004,0.04214782062369693,0.4484132342023557)" stroke="none" fill="#6424EE"><g><path d="M9.29 85.522c.761.755 1.905.843 2.556.198l33.506-33.313c.652-.646.563-1.783-.198-2.54-.761-.756-1.904-.844-2.555-.197L9.092 82.983c-.651.644-.563 1.784.198 2.539zM49.756 56.789L16.251 90.1c-.651.646-.562 1.784.198 2.543.76.753 1.905.844 2.556.195l33.508-33.312c.65-.646.561-1.784-.197-2.541-.763-.755-1.907-.845-2.56-.196z"></path></g><path d="M80.477 80.008a8.983 8.983 0 0 0 0 12.753c3.545 3.521 9.285 3.521 12.83 0a8.983 8.983 0 0 0 0-12.753c-3.545-3.523-9.286-3.523-12.83 0zM78.985 78.521a9.403 9.403 0 0 0 0-13.347L42.586 28.992c-3.707-3.687-9.718-3.687-13.425 0a9.4 9.4 0 0 0 0 13.347l36.394 36.183c3.712 3.684 9.719 3.684 13.43-.001zM30.95 42.377c-3.553-3.532-3.817-8.992-.594-12.197 3.224-3.206 8.716-2.941 12.269.59l34.871 34.666c3.551 3.533 3.819 8.991.596 12.199-3.227 3.205-8.717 2.938-12.27-.594L30.95 42.377z"></path><path d="M78.092 77.636c3.224-3.208 2.955-8.666-.596-12.199L42.625 30.771c-3.553-3.531-9.045-3.796-12.269-.59-3.224 3.205-2.959 8.665.594 12.197l34.872 34.665c3.553 3.531 9.043 3.798 12.27.593z"></path><path d="M21.046 36.941l58.384 58.04c4.448 4.423 11.662 4.423 16.11 0a11.281 11.281 0 0 0 0-16.016l-58.383-58.04c.712-5.508-1.041-11.27-5.296-15.5C26.754.347 19.427-1.159 12.989.876c3.752 3.727 6.652 6.679 7.565 7.585 3.262 3.244 4.035 7.733 1.728 10.026l-3.684 3.663c-2.307 2.293-6.823 1.525-10.085-1.718-.911-.907-3.88-3.789-7.631-7.521-2.047 6.402-.532 13.685 4.576 18.763 4.255 4.231 10.049 5.974 15.588 5.267zm72.261 55.82c-3.545 3.521-9.285 3.521-12.83 0a8.983 8.983 0 0 1 0-12.753c3.545-3.522 9.285-3.522 12.83 0a8.983 8.983 0 0 1 0 12.753zM29.162 42.339a9.4 9.4 0 0 1 0-13.347c3.707-3.687 9.718-3.687 13.425 0l36.399 36.183a9.403 9.403 0 0 1 0 13.347c-3.711 3.685-9.719 3.685-13.43 0L29.162 42.339z"></path><path d="M20.896 98.602L50.339 69.33l-3.843-3.822-27.491 27.33c-.651.648-1.795.558-2.556-.195-.76-.759-.849-1.897-.198-2.543l27.49-27.33-4.405-4.381-27.49 27.332c-.65.645-1.794.557-2.556-.198-.761-.756-.849-1.896-.198-2.539l27.49-27.332-3.844-3.821L3.295 81.103c-2.851 2.832-1.22 9.046 3.641 13.877 4.86 4.833 11.109 6.455 13.96 3.622zM64.886 44.862l9.892-9.836 8.224-2.191 15.926-22.571-6.775-6.738L69.45 19.361l-2.206 8.176-9.893 9.836z"></path></g><!----></svg>